<mxfile host="app.diagrams.net" modified="2024-06-25T18:12:46.472Z" agent="Mozilla/5.0 (X11; Linux x86_64) AppleWebKit/537.36 (KHTML, like Gecko) Chrome/126.0.0.0 Safari/537.36" version="24.4.13" etag="Xikdi_YhzquQ00zNIY3u" type="github">
  <diagram name="Page-1" id="9CnUHFrhUt6KYVDFWhDL">
    <mxGraphModel>
      <root>
        <mxCell id="0" />
        <mxCell id="1" parent="0" />
      </root>
    </mxGraphModel>
  </diagram>
</mxfile>
